<svg width="24" height="37" viewBox="0 0 24 37" fill="none" xmlns="http://www.w3.org/2000/svg">
<g clip-path="url(#clip0_64_849)">
<path d="M12 18.5004C12 15.1293 14.6589 12.3965 17.9389 12.3965C21.2188 12.3965 23.8778 15.1293 23.8778 18.5004C23.8778 21.8715 21.2188 24.6043 17.9389 24.6043C14.6589 24.6043 12 21.8715 12 18.5004Z" fill="#1ABCFE"/>
<path d="M0.122192 30.7074C0.122192 27.3364 2.78113 24.6035 6.06111 24.6035H12V30.7074C12 34.0785 9.34111 36.8113 6.06111 36.8113C2.78113 36.8113 0.122192 34.0785 0.122192 30.7074Z" fill="#0ACF83"/>
<path d="M12 0.1875V12.3952H17.9389C21.2189 12.3952 23.8778 9.66246 23.8778 6.29138C23.8778 2.9203 21.2189 0.1875 17.9389 0.1875H12Z" fill="#FF7262"/>
<path d="M0.122192 6.29139C0.122192 9.66246 2.78113 12.3952 6.06111 12.3952H12V0.1875H6.06111C2.78113 0.1875 0.122192 2.9203 0.122192 6.29139Z" fill="#F24E1E"/>
<path d="M0.122192 18.5004C0.122192 21.8715 2.78113 24.6043 6.06111 24.6043H12V12.3965H6.06111C2.78113 12.3965 0.122192 15.1293 0.122192 18.5004Z" fill="#A259FF"/>
</g>
<defs>
<clipPath id="clip0_64_849">
<rect width="24" height="37" fill="white"/>
</clipPath>
</defs>
</svg>
