<svg width="276" height="276" viewBox="0 0 276 276" fill="none" xmlns="http://www.w3.org/2000/svg">
<path d="M2.06845 69.4678C2.06845 31.8956 32.5734 1.37891 70.1573 1.37891H206.324C243.908 1.37891 274.413 31.8839 274.413 69.4678V205.635C274.413 243.218 243.908 273.723 206.324 273.723H70.1573C32.5734 273.723 2.06845 243.218 2.06845 205.635V69.4678Z" fill="#FFDD33"/>
<path fill-rule="evenodd" clip-rule="evenodd" d="M183.107 53.3301H158.401L179.009 89.5284L133.694 53.3301H108.987L131.645 97.5388L84.2806 53.3301H59.5739L84.2806 109.648L59.5739 222.272H84.2806L131.645 101.626L108.987 222.272H133.694L179.009 93.557L158.401 222.272H183.107L228.423 81.518L183.107 53.3883V53.3301Z" fill="#1C1C1E"/>
</svg>
