<svg width="1521" height="325" viewBox="0 0 1521 325" fill="none" xmlns="http://www.w3.org/2000/svg">
<g clip-path="url(#clip0_594_2)">
<path fill-rule="evenodd" clip-rule="evenodd" d="M-0.0859375 325.021H332.158L657.179 0H-0.0859375V325.021Z" fill="url(#paint0_linear_594_2)"/>
<path fill-rule="evenodd" clip-rule="evenodd" d="M389.938 65.0045H324.934V217.403L268.597 65.0045H212.26L163.868 192.846C158.812 160.344 124.865 149.51 98.8637 140.843C81.5292 135.065 62.7502 127.12 63.4725 117.73C63.4725 110.507 73.5843 103.285 93.0855 104.007C106.086 104.729 117.643 105.452 140.755 117.008L163.146 78.0053C142.2 67.1713 113.309 60.6709 90.1964 60.6709C62.7502 60.6709 39.6376 69.3381 25.1923 84.5058C15.0805 94.6175 10.0246 107.618 10.0246 122.064C10.0246 141.565 17.2473 156.01 32.4149 167.567C45.4158 176.956 62.028 183.457 76.4733 187.79C94.53 193.568 108.975 197.902 108.975 208.736C108.975 212.347 107.531 215.959 104.642 218.848C100.308 223.181 93.0855 225.348 83.696 225.348C64.1948 224.626 50.4717 221.737 28.8036 209.458L8.58008 249.183C30.2481 261.462 53.3607 267.962 79.3624 267.962H85.1406C107.531 267.24 126.31 262.184 140.755 250.628C141.478 249.905 142.2 249.183 142.922 248.461L141.478 260.017H196.37L206.482 234.738C216.593 238.349 228.872 240.516 241.151 240.516C253.429 240.516 264.985 238.349 275.097 235.46L281.598 260.017H379.826V202.958H400.772C451.331 202.958 480.944 176.956 480.944 134.342C480.944 85.9503 451.331 65.0045 389.938 65.0045ZM240.428 195.735C233.206 195.735 225.983 194.291 219.483 192.124L239.706 127.12H240.428L260.652 192.124C254.874 194.291 247.651 195.735 240.428 195.735ZM393.549 158.177H379.104V106.174H393.549C412.328 106.174 427.496 112.674 427.496 132.175C427.496 151.677 412.328 158.177 393.549 158.177Z" fill="white"/>
<path d="M505.781 294.23H483.533L517.432 196.032H544.188L578.039 294.23H555.791L531.194 218.472H530.426L505.781 294.23ZM504.39 255.632H556.942V271.839H504.39V255.632ZM609.901 251.652V294.23H589.475V220.582H608.942V233.576H609.805C611.435 229.292 614.168 225.904 618.004 223.411C621.84 220.885 626.491 219.623 631.957 219.623C637.072 219.623 641.531 220.741 645.335 222.979C649.139 225.217 652.096 228.413 654.205 232.569C656.315 236.692 657.37 241.615 657.37 247.337V294.23H636.944V250.981C636.976 246.474 635.825 242.958 633.492 240.432C631.158 237.875 627.946 236.596 623.854 236.596C621.105 236.596 618.676 237.188 616.566 238.371C614.488 239.553 612.858 241.279 611.675 243.549C610.524 245.787 609.933 248.488 609.901 251.652ZM694.47 295.621C689.771 295.621 685.584 294.806 681.908 293.176C678.232 291.513 675.323 289.068 673.181 285.839C671.071 282.579 670.016 278.519 670.016 273.661C670.016 269.569 670.768 266.133 672.27 263.352C673.772 260.571 675.818 258.333 678.407 256.639C680.997 254.945 683.937 253.666 687.23 252.803C690.554 251.94 694.039 251.333 697.683 250.981C701.966 250.533 705.418 250.118 708.039 249.734C710.661 249.319 712.563 248.711 713.745 247.912C714.928 247.113 715.519 245.93 715.519 244.364V244.076C715.519 241.04 714.56 238.69 712.643 237.028C710.757 235.366 708.071 234.535 704.587 234.535C700.911 234.535 697.986 235.35 695.813 236.98C693.639 238.578 692.201 240.592 691.497 243.022L672.606 241.487C673.565 237.012 675.451 233.144 678.264 229.884C681.076 226.591 684.705 224.066 689.148 222.308C693.623 220.518 698.801 219.623 704.683 219.623C708.775 219.623 712.691 220.102 716.43 221.061C720.202 222.02 723.543 223.506 726.452 225.52C729.393 227.534 731.71 230.123 733.404 233.288C735.098 236.421 735.945 240.177 735.945 244.556V294.23H716.574V284.017H715.999C714.816 286.319 713.234 288.349 711.252 290.107C709.27 291.833 706.889 293.192 704.108 294.183C701.327 295.141 698.114 295.621 694.47 295.621ZM700.32 281.524C703.325 281.524 705.978 280.933 708.279 279.75C710.581 278.535 712.387 276.905 713.697 274.859C715.008 272.813 715.663 270.496 715.663 267.907V260.091C715.024 260.507 714.145 260.89 713.026 261.242C711.939 261.562 710.709 261.865 709.334 262.153C707.96 262.409 706.585 262.648 705.211 262.872C703.836 263.064 702.589 263.24 701.471 263.4C699.073 263.751 696.979 264.311 695.189 265.078C693.399 265.845 692.009 266.884 691.018 268.194C690.027 269.473 689.531 271.071 689.531 272.989C689.531 275.77 690.538 277.896 692.552 279.366C694.598 280.805 697.187 281.524 700.32 281.524ZM772.219 196.032V294.23H751.792V196.032H772.219ZM801.191 321.849C798.602 321.849 796.173 321.641 793.903 321.225C791.666 320.842 789.812 320.346 788.341 319.739L792.944 304.491C795.342 305.227 797.499 305.626 799.417 305.69C801.367 305.754 803.045 305.307 804.452 304.348C805.89 303.389 807.057 301.758 807.952 299.457L809.151 296.34L782.731 220.582H804.212L819.46 274.667H820.227L835.618 220.582H857.243L828.618 302.19C827.243 306.154 825.373 309.606 823.008 312.547C820.674 315.52 817.718 317.805 814.137 319.403C810.557 321.034 806.242 321.849 801.191 321.849ZM906.87 220.582V235.925H862.517V220.582H906.87ZM872.587 202.937H893.013V271.599C893.013 273.485 893.3 274.955 893.876 276.01C894.451 277.033 895.25 277.752 896.273 278.168C897.328 278.583 898.543 278.791 899.917 278.791C900.876 278.791 901.835 278.711 902.794 278.551C903.753 278.36 904.488 278.216 905 278.12L908.212 293.319C907.189 293.639 905.751 294.007 903.897 294.422C902.043 294.87 899.789 295.141 897.136 295.237C892.213 295.429 887.898 294.774 884.19 293.271C880.514 291.769 877.653 289.436 875.607 286.271C873.562 283.106 872.555 279.111 872.587 274.284V202.937ZM920.175 294.23V220.582H940.601V294.23H920.175ZM930.436 211.088C927.4 211.088 924.794 210.081 922.621 208.067C920.479 206.021 919.408 203.576 919.408 200.731C919.408 197.918 920.479 195.505 922.621 193.491C924.794 191.445 927.4 190.422 930.436 190.422C933.473 190.422 936.062 191.445 938.204 193.491C940.378 195.505 941.465 197.918 941.465 200.731C941.465 203.576 940.378 206.021 938.204 208.067C936.062 210.081 933.473 211.088 930.436 211.088ZM990.24 295.669C982.696 295.669 976.207 294.071 970.773 290.874C965.371 287.646 961.215 283.17 958.306 277.449C955.43 271.727 953.991 265.142 953.991 257.694C953.991 250.15 955.446 243.533 958.354 237.843C961.295 232.121 965.467 227.662 970.869 224.465C976.271 221.237 982.696 219.623 990.144 219.623C996.569 219.623 1002.2 220.789 1007.02 223.123C1011.85 225.456 1015.67 228.733 1018.48 232.952C1021.29 237.172 1022.85 242.126 1023.13 247.816H1003.86C1003.31 244.14 1001.88 241.183 999.542 238.946C997.241 236.676 994.22 235.542 990.48 235.542C987.315 235.542 984.55 236.405 982.185 238.131C979.851 239.825 978.029 242.302 976.719 245.563C975.408 248.823 974.753 252.771 974.753 257.406C974.753 262.105 975.392 266.101 976.671 269.393C977.981 272.686 979.819 275.195 982.185 276.921C984.55 278.647 987.315 279.51 990.48 279.51C992.813 279.51 994.907 279.031 996.761 278.072C998.647 277.113 1000.2 275.722 1001.41 273.9C1002.66 272.046 1003.47 269.825 1003.86 267.235H1023.13C1022.81 272.861 1021.28 277.816 1018.53 282.1C1015.81 286.351 1012.06 289.675 1007.26 292.073C1002.47 294.47 996.793 295.669 990.24 295.669ZM1097.49 241.583L1078.79 242.734C1078.47 241.136 1077.78 239.697 1076.73 238.418C1075.67 237.108 1074.28 236.069 1072.56 235.302C1070.86 234.503 1068.83 234.103 1066.47 234.103C1063.3 234.103 1060.63 234.774 1058.46 236.117C1056.29 237.428 1055.2 239.186 1055.2 241.391C1055.2 243.149 1055.9 244.636 1057.31 245.85C1058.71 247.065 1061.13 248.04 1064.55 248.775L1077.88 251.46C1085.04 252.931 1090.38 255.296 1093.89 258.557C1097.41 261.817 1099.17 266.101 1099.17 271.407C1099.17 276.234 1097.74 280.469 1094.9 284.113C1092.09 287.757 1088.22 290.602 1083.3 292.648C1078.41 294.662 1072.76 295.669 1066.37 295.669C1056.62 295.669 1048.85 293.639 1043.07 289.579C1037.31 285.488 1033.94 279.926 1032.95 272.893L1053.04 271.839C1053.65 274.811 1055.12 277.081 1057.45 278.647C1059.79 280.182 1062.77 280.949 1066.42 280.949C1070 280.949 1072.88 280.261 1075.05 278.887C1077.25 277.48 1078.37 275.674 1078.41 273.469C1078.37 271.615 1077.59 270.096 1076.06 268.914C1074.52 267.699 1072.16 266.772 1068.96 266.133L1056.21 263.591C1049.01 262.153 1043.66 259.66 1040.14 256.111C1036.66 252.563 1034.92 248.04 1034.92 242.542C1034.92 237.811 1036.19 233.736 1038.75 230.315C1041.34 226.895 1044.97 224.258 1049.64 222.404C1054.34 220.55 1059.83 219.623 1066.13 219.623C1075.43 219.623 1082.75 221.589 1088.09 225.52C1093.46 229.452 1096.59 234.806 1097.49 241.583ZM1230.31 230.411H1209.3C1208.92 227.694 1208.14 225.281 1206.96 223.171C1205.77 221.029 1204.25 219.207 1202.4 217.705C1200.55 216.202 1198.4 215.052 1195.97 214.252C1193.58 213.453 1190.97 213.054 1188.16 213.054C1183.08 213.054 1178.65 214.316 1174.88 216.842C1171.11 219.335 1168.18 222.979 1166.1 227.774C1164.03 232.537 1162.99 238.323 1162.99 245.131C1162.99 252.132 1164.03 258.013 1166.1 262.776C1168.21 267.539 1171.15 271.135 1174.93 273.565C1178.7 275.994 1183.06 277.209 1188.02 277.209C1190.8 277.209 1193.37 276.841 1195.74 276.106C1198.13 275.371 1200.26 274.3 1202.11 272.893C1203.97 271.455 1205.5 269.713 1206.72 267.667C1207.96 265.621 1208.83 263.288 1209.3 260.667L1230.31 260.762C1229.76 265.27 1228.4 269.617 1226.23 273.804C1224.09 277.96 1221.2 281.684 1217.55 284.976C1213.94 288.237 1209.62 290.826 1204.61 292.744C1199.62 294.63 1193.98 295.573 1187.68 295.573C1178.92 295.573 1171.09 293.591 1164.19 289.627C1157.31 285.664 1151.88 279.926 1147.88 272.414C1143.92 264.902 1141.94 255.808 1141.94 245.131C1141.94 234.423 1143.95 225.313 1147.98 217.801C1152.01 210.289 1157.47 204.567 1164.38 200.635C1171.28 196.671 1179.05 194.689 1187.68 194.689C1193.37 194.689 1198.64 195.489 1203.5 197.087C1208.39 198.685 1212.72 201.019 1216.5 204.087C1220.27 207.124 1223.34 210.848 1225.7 215.259C1228.1 219.671 1229.63 224.721 1230.31 230.411ZM1265.24 196.032V294.23H1244.81V196.032H1265.24ZM1314.88 295.669C1307.43 295.669 1300.99 294.087 1295.55 290.922C1290.15 287.725 1285.98 283.282 1283.04 277.592C1280.1 271.871 1278.63 265.238 1278.63 257.694C1278.63 250.086 1280.1 243.437 1283.04 237.747C1285.98 232.025 1290.15 227.582 1295.55 224.418C1300.99 221.221 1307.43 219.623 1314.88 219.623C1322.32 219.623 1328.75 221.221 1334.15 224.418C1339.58 227.582 1343.77 232.025 1346.71 237.747C1349.65 243.437 1351.12 250.086 1351.12 257.694C1351.12 265.238 1349.65 271.871 1346.71 277.592C1343.77 283.282 1339.58 287.725 1334.15 290.922C1328.75 294.087 1322.32 295.669 1314.88 295.669ZM1314.97 279.846C1318.36 279.846 1321.19 278.887 1323.46 276.969C1325.73 275.019 1327.44 272.366 1328.59 269.01C1329.77 265.653 1330.36 261.833 1330.36 257.55C1330.36 253.267 1329.77 249.447 1328.59 246.09C1327.44 242.734 1325.73 240.081 1323.46 238.131C1321.19 236.181 1318.36 235.206 1314.97 235.206C1311.55 235.206 1308.67 236.181 1306.34 238.131C1304.04 240.081 1302.3 242.734 1301.11 246.09C1299.96 249.447 1299.39 253.267 1299.39 257.55C1299.39 261.833 1299.96 265.653 1301.11 269.01C1302.3 272.366 1304.04 275.019 1306.34 276.969C1308.67 278.887 1311.55 279.846 1314.97 279.846ZM1411.64 262.872V220.582H1432.06V294.23H1412.45V280.853H1411.68C1410.02 285.168 1407.26 288.636 1403.39 291.258C1399.55 293.879 1394.87 295.189 1389.34 295.189C1384.42 295.189 1380.09 294.071 1376.35 291.833C1372.61 289.595 1369.68 286.415 1367.57 282.291C1365.49 278.168 1364.44 273.229 1364.41 267.475V220.582H1384.83V263.831C1384.86 268.178 1386.03 271.615 1388.33 274.14C1390.63 276.665 1393.72 277.928 1397.59 277.928C1400.05 277.928 1402.35 277.369 1404.49 276.25C1406.63 275.099 1408.36 273.405 1409.67 271.167C1411.01 268.93 1411.67 266.165 1411.64 262.872ZM1475.54 295.429C1469.94 295.429 1464.88 293.991 1460.34 291.114C1455.83 288.205 1452.25 283.938 1449.6 278.312C1446.98 272.654 1445.67 265.717 1445.67 257.502C1445.67 249.063 1447.03 242.047 1449.74 236.453C1452.46 230.827 1456.07 226.623 1460.58 223.842C1465.12 221.029 1470.09 219.623 1475.49 219.623C1479.61 219.623 1483.05 220.326 1485.8 221.732C1488.58 223.107 1490.82 224.833 1492.51 226.911C1494.24 228.957 1495.55 230.97 1496.44 232.952H1497.07V196.032H1517.45V294.23H1497.31V282.435H1496.44C1495.48 284.481 1494.13 286.511 1492.37 288.525C1490.64 290.506 1488.39 292.153 1485.61 293.463C1482.86 294.774 1479.5 295.429 1475.54 295.429ZM1482.01 279.175C1485.3 279.175 1488.08 278.28 1490.35 276.49C1492.66 274.667 1494.41 272.126 1495.63 268.866C1496.88 265.605 1497.5 261.785 1497.5 257.406C1497.5 253.027 1496.89 249.223 1495.68 245.994C1494.46 242.766 1492.7 240.272 1490.4 238.514C1488.1 236.756 1485.3 235.877 1482.01 235.877C1478.66 235.877 1475.83 236.788 1473.52 238.61C1471.22 240.432 1469.48 242.958 1468.3 246.186C1467.12 249.415 1466.52 253.155 1466.52 257.406C1466.52 261.689 1467.12 265.477 1468.3 268.77C1469.51 272.03 1471.25 274.588 1473.52 276.442C1475.83 278.264 1478.66 279.175 1482.01 279.175Z" fill="black"/>
</g>
<defs>
<linearGradient id="paint0_linear_594_2" x1="328.423" y1="0" x2="328.423" y2="325.021" gradientUnits="userSpaceOnUse">
<stop stop-color="#00AEEF"/>
<stop offset="0.212" stop-color="#0097DC"/>
<stop offset="0.519" stop-color="#007CC5"/>
<stop offset="0.792" stop-color="#006CB8"/>
<stop offset="1" stop-color="#0066B3"/>
</linearGradient>
<clipPath id="clip0_594_2">
<rect width="1521" height="325" fill="white"/>
</clipPath>
</defs>
</svg>
