<svg width="7351" height="1207" viewBox="0 0 7351 1207" fill="none" xmlns="http://www.w3.org/2000/svg">
<path d="M4569.13 676.503C4569.13 548.224 4500.29 487.458 4308.54 445.601C4201.86 422.644 4176.22 398.341 4176.22 364.582C4176.22 322.723 4214.03 303.819 4284.22 303.819C4369.3 303.819 4453.02 329.474 4532.68 365.933V197.145C4477.34 168.788 4390.9 147.184 4289.65 147.184C4099.25 147.184 4000.67 229.552 4000.67 365.933C4000.67 473.955 4050.62 560.377 4247.77 598.186C4365.23 622.489 4389.54 641.393 4389.54 680.552C4389.54 718.361 4365.23 742.667 4281.55 742.667C4185.65 742.667 4070.9 710.26 3996.6 665.7V842.588C4056.05 872.296 4134.34 904.703 4280.19 904.703C4488.12 904.703 4569.13 812.883 4569.13 676.503Z" fill="#0052CC"/>
<path d="M6647.27 157.984V893.898H6803.89V332.174L6870.05 482.059L7091.51 893.898H7288.66V157.984H7132V633.291L7072.59 495.561L6894.36 157.984H6647.27Z" fill="#0052CC"/>
<path d="M5650.74 157.984H5479.26V892.549H5650.74V157.984Z" fill="#0052CC"/>
<path d="M5282.11 676.503C5282.11 548.224 5213.24 487.458 5021.48 445.601C4914.84 422.644 4889.17 398.341 4889.17 364.582C4889.17 322.723 4926.97 303.819 4997.2 303.819C5082.24 303.819 5165.97 329.474 5245.66 365.933V197.145C5190.28 168.788 5103.88 147.184 5002.59 147.184C4812.19 147.184 4713.62 229.552 4713.62 365.933C4713.62 473.955 4763.6 560.377 4960.71 598.186C5078.21 622.489 5102.52 641.393 5102.52 680.552C5102.52 718.361 5078.21 742.667 4994.49 742.667C4898.63 742.667 4783.84 710.26 4709.58 665.7V842.588C4768.99 872.296 4847.32 904.703 4993.13 904.703C5201.1 904.703 5282.11 812.883 5282.11 676.503Z" fill="#0052CC"/>
<path d="M2671.97 157.984V893.898H3024.4L3079.76 734.565H2844.81V157.984H2671.97Z" fill="#0052CC"/>
<path d="M1977.91 157.984V317.32H2166.96V893.898H2339.79V317.32H2543.69V157.984H1977.91Z" fill="#0052CC"/>
<path d="M1728.11 157.984H1502.61L1246.05 892.549H1441.84L1478.3 768.322C1521.51 780.475 1567.42 788.576 1616.03 788.576C1663.29 788.576 1709.2 781.824 1753.76 768.322L1790.22 892.549H1986.01L1728.11 157.984ZM1614.68 637.343C1582.27 637.343 1549.86 631.941 1520.16 623.837L1614.68 302.467L1709.2 623.837C1679.49 631.941 1647.09 637.343 1614.68 637.343Z" fill="#0052CC"/>
<path d="M3630.68 157.984H3405.18L3148.63 892.549H3344.42L3380.88 768.322C3424.09 780.475 3470 788.576 3518.61 788.576C3565.87 788.576 3611.78 781.824 3656.34 768.322L3692.8 892.549H3888.6L3630.68 157.984ZM3518.61 637.343C3486.2 637.343 3453.79 631.941 3424.09 623.837L3518.61 302.467L3613.13 623.837C3582.07 631.941 3551.02 637.343 3518.61 637.343Z" fill="#0052CC"/>
<path d="M6267.82 157.984H6042.32L5785.76 892.549H5981.56L6018.01 768.322C6061.25 780.475 6107.12 788.576 6155.75 788.576C6203.02 788.576 6248.93 781.824 6293.49 768.322L6329.94 892.549H6525.74L6267.82 157.984ZM6154.39 637.343C6121.97 637.343 6089.59 631.941 6059.89 623.837L6154.39 302.467L6248.93 623.837C6219.23 631.941 6188.17 637.343 6154.39 637.343Z" fill="#0052CC"/>
<path d="M5282.11 676.501C5282.11 548.222 5214.6 487.456 5021.48 445.599C4914.84 422.642 4889.17 398.339 4889.17 364.58C4889.17 322.721 4926.97 303.816 4997.2 303.816C5082.24 303.816 5165.97 329.472 5245.66 365.93V197.142C5170.04 162.035 5086.32 145.831 5002.59 147.181C4812.19 147.181 4713.62 229.55 4713.62 365.93C4713.62 473.953 4763.6 560.375 4960.71 598.18C5078.21 622.487 5102.52 641.391 5102.52 680.55C5102.52 719.708 5078.21 742.665 4994.49 742.665C4894.56 741.316 4795.98 714.307 4709.58 665.698V842.586C4768.99 872.294 4847.32 904.701 4993.13 904.701C5199.74 904.701 5280.75 812.882 5282.11 676.501Z" fill="#0052CC"/>
<path d="M257.627 417.245C253.575 411.843 245.474 409.141 238.722 409.141C233.321 410.494 227.92 414.542 225.219 419.944L2.41921 865.544C-2.982 874.995 1.0689 887.148 10.521 891.2C13.2216 892.55 15.9222 893.899 18.6229 893.899H329.192C335.944 893.899 344.046 889.851 346.747 883.099C412.91 748.069 372.402 538.769 257.627 417.245Z" fill="#0052CC"/>
<path d="M893.62 865.544C888.218 857.443 476.375 31.057 465.571 10.8024C462.872 4.05092 457.47 0 450.719 0H449.369C442.618 0 435.867 4.05092 431.814 10.8024C319.74 187.692 307.587 402.389 398.058 583.33L547.941 881.746C550.643 888.501 557.395 892.549 565.496 892.549H876.065C886.869 892.549 894.97 884.448 894.97 873.645C894.97 870.946 894.969 868.243 893.62 865.544Z" fill="#0052CC"/>
</svg>
