<svg width="1000" height="1000" viewBox="0 0 1000 1000" fill="none" xmlns="http://www.w3.org/2000/svg">
<rect width="1000" height="1000" rx="500" fill="white"/>
<path d="M378.298 477.027C369.196 467.02 355.545 467.93 349.172 479.757L201.72 774.525C196.258 786.352 204.45 800 217.193 800H421.988C428.361 800 434.731 796.36 437.463 789.992C482.061 699.015 455.666 559.817 378.298 477.027Z" fill="url(#paint0_linear_1247_588)"/>
<path d="M485.715 209.553C403.797 339.651 409.26 484.308 462.959 592.57C517.572 700.835 558.531 784.533 562.173 789.993C564.904 796.36 571.275 800 577.645 800H782.443C795.184 800 804.285 786.353 797.915 774.525C797.915 774.525 522.124 223.2 514.841 209.553C509.381 196.816 493.906 196.816 485.715 209.553Z" fill="#2684FF"/>
<defs>
<linearGradient id="paint0_linear_1247_588" x1="458.76" y1="522.625" x2="303.468" y2="791.725" gradientUnits="userSpaceOnUse">
<stop stop-color="#0052CC"/>
<stop offset="0.9228" stop-color="#2684FF"/>
</linearGradient>
</defs>
</svg>
