<svg width="9504" height="3477" viewBox="0 0 9504 3477" fill="none" xmlns="http://www.w3.org/2000/svg">
<g clip-path="url(#clip0_1257_1497)">
<path d="M1793.78 1181.43H2319.52V602.022C2319.52 440.207 2242.66 358.43 2085.47 358.43H2026.08C1870.63 358.43 1792.04 440.207 1792.04 602.022L1793.78 1181.43ZM1793.78 1552.03L1795.53 2188.86C1795.53 2350.67 1874.13 2430.71 2029.58 2430.71H2097.69C2253.14 2430.71 2331.74 2350.67 2331.74 2188.86V1875.67H2689.8V2173.2C2689.8 2582.08 2490.68 2790.88 2095.95 2790.88H2017.35C1622.61 2790.88 1423.5 2583.82 1423.5 2221.91V664.661C1423.5 207.054 1622.61 0 2017.35 0H2095.95C2490.68 0 2689.8 207.054 2689.8 615.942L2688.05 1550.29L1793.78 1552.03Z" fill="#464547"/>
<path d="M3299.37 2284.55C3400.68 2375.03 3517.7 2425.49 3639.96 2425.49C3776.2 2425.49 3854.8 2359.37 3854.8 2202.78V584.623C3854.8 428.028 3776.2 361.91 3639.96 361.91C3517.7 361.91 3400.68 412.368 3299.37 502.846V2284.55ZM2929.09 31.3194H3299.37V208.794C3386.7 113.097 3536.91 1.74023 3751.75 1.74023C4067.89 1.74023 4223.33 219.234 4223.33 542.864V2251.49C4223.33 2575.12 4067.89 2792.62 3751.75 2792.62C3536.91 2792.62 3386.7 2686.48 3299.37 2596V3476.42H2929.09V31.3194Z" fill="#464547"/>
<path d="M5332.44 2300.21V1400.66L4997.09 1532.9C4860.85 1588.57 4817.19 1659.91 4817.19 1816.51V2230.61C4817.19 2362.85 4880.07 2427.23 4997.09 2427.23C5108.87 2427.23 5211.92 2387.21 5332.44 2300.21ZM4446.9 1809.55C4446.9 1470.26 4553.45 1334.54 4836.4 1233.62L5332.44 1056.15V602.023C5332.44 440.207 5253.84 354.95 5098.39 354.95H5039.01C4883.56 354.95 4804.96 440.207 4804.96 602.023V988.291H4445.16V617.682C4445.16 208.794 4644.27 1.74023 5039.01 1.74023H5108.87C5503.61 1.74023 5702.72 208.794 5702.72 617.682V2761.3H5332.44V2589.04C5231.14 2689.96 5093.15 2790.88 4880.07 2790.88C4583.14 2790.88 4446.9 2613.4 4446.9 2310.65V1809.55Z" fill="#464547"/>
<path d="M7197.83 2761.3H6827.55V562.004C6827.55 426.287 6764.67 365.389 6652.89 365.389C6551.58 365.389 6443.29 405.408 6312.3 501.105V2761.3H5942.01V31.3191H6312.3V208.794C6420.59 102.657 6560.32 0 6764.67 0C6955.05 0 7080.81 81.7776 7148.93 222.713C7281.67 106.137 7437.12 0 7650.21 0C7936.66 0 8083.37 182.695 8083.37 480.226V2759.56H7713.09V562.004C7713.09 426.287 7650.21 365.389 7538.43 365.389C7437.12 365.389 7328.83 405.408 7197.83 501.105V2761.3Z" fill="#464547"/>
<path d="M0 1221.44V1590.31L950.163 2517.71V2004.42L328.365 1400.66L950.163 784.716V281.871L0 1221.44Z" fill="#00ABCD"/>
<path d="M8553.21 784.716L9175.01 1400.66L8553.21 2006.16V2517.71L9503.38 1590.31V1221.44L8553.21 281.871V784.716Z" fill="#00ABCD"/>
</g>
<defs>
<clipPath id="clip0_1257_1497">
<rect width="9503.38" height="3476.42" fill="white"/>
</clipPath>
</defs>
</svg>
