<svg width="5668" height="2074" viewBox="0 0 5668 2074" fill="none" xmlns="http://www.w3.org/2000/svg">
<g clip-path="url(#clip0_1257_591)">
<path d="M1069.74 704.558H1383.27V359.023C1383.27 262.523 1337.44 213.754 1243.69 213.754H1208.28C1115.57 213.754 1068.7 262.523 1068.7 359.023L1069.74 704.558ZM1069.74 925.575L1070.79 1305.35C1070.79 1401.85 1117.66 1449.58 1210.36 1449.58H1250.99C1343.69 1449.58 1390.56 1401.85 1390.56 1305.35V1118.58H1604.09V1296.01C1604.09 1539.86 1485.35 1664.37 1249.94 1664.37H1203.07C967.665 1664.37 848.92 1540.9 848.92 1325.07V396.378C848.92 123.479 967.665 0 1203.07 0H1249.94C1485.35 0 1604.09 123.479 1604.09 367.325L1603.05 924.537L1069.74 925.575Z" fill="white"/>
<path d="M1967.62 1362.42C2028.03 1416.38 2097.82 1446.47 2170.74 1446.47C2251.98 1446.47 2298.85 1407.04 2298.85 1313.65V348.647C2298.85 255.259 2251.98 215.829 2170.74 215.829C2097.82 215.829 2028.03 245.92 1967.62 299.877V1362.42ZM1746.8 18.677H1967.62V124.516C2019.7 67.4461 2109.28 1.03711 2237.4 1.03711C2425.93 1.03711 2518.64 130.742 2518.64 323.743V1342.71C2518.64 1535.71 2425.93 1665.41 2237.4 1665.41C2109.28 1665.41 2019.7 1602.12 1967.62 1548.16V2073.2H1746.8V18.677Z" fill="white"/>
<path d="M3180.07 1371.76V835.3L2980.07 914.16C2898.83 947.365 2872.79 989.908 2872.79 1083.3V1330.25C2872.79 1409.11 2910.29 1447.51 2980.07 1447.51C3046.74 1447.51 3108.19 1423.64 3180.07 1371.76ZM2651.96 1079.15C2651.96 876.805 2715.5 795.869 2884.25 735.686L3180.07 629.847V359.023C3180.07 262.522 3133.19 211.678 3040.49 211.678H3005.07C2912.37 211.678 2865.5 262.522 2865.5 359.023V589.379H2650.92V368.362C2650.92 124.516 2769.67 1.03711 3005.07 1.03711H3046.74C3282.14 1.03711 3400.89 124.516 3400.89 368.362V1646.73H3180.07V1544.01C3119.65 1604.19 3037.36 1664.37 2910.29 1664.37C2733.21 1664.37 2651.96 1558.53 2651.96 1377.99V1079.15Z" fill="white"/>
<path d="M4292.52 1646.73H4071.69V335.158C4071.69 254.222 4034.19 217.904 3967.53 217.904C3907.12 217.904 3842.54 241.77 3764.41 298.84V1646.73H3543.59V18.6775H3764.41V124.517C3828.99 61.2208 3912.32 0 4034.19 0C4147.73 0 4222.73 48.7691 4263.35 132.818C4342.51 63.296 4435.22 0 4562.3 0C4733.12 0 4820.62 108.952 4820.62 286.389V1645.7H4599.79V335.158C4599.79 254.222 4562.3 217.904 4495.63 217.904C4435.22 217.904 4370.64 241.77 4292.52 298.84V1646.73Z" fill="white"/>
<path d="M0 728.423V948.403L566.641 1501.47V1195.36L195.825 835.3L566.641 467.976V168.098L0 728.423Z" fill="white"/>
<path d="M5100.81 467.976L5471.63 835.3L5100.81 1196.4V1501.47L5667.45 948.403V728.423L5100.81 168.098V467.976Z" fill="white"/>
</g>
<defs>
<clipPath id="clip0_1257_591">
<rect width="5667.45" height="2073.2" fill="white"/>
</clipPath>
</defs>
</svg>
