<svg width="1000" height="1000" viewBox="0 0 1000 1000" fill="none" xmlns="http://www.w3.org/2000/svg">
<rect width="1000" height="1000" rx="500" fill="white"/>
<g clip-path="url(#clip0_1250_583)">
<path d="M276.704 458.378H316.477V414.545C316.477 402.303 310.663 396.116 298.771 396.116H294.278C282.518 396.116 276.572 402.303 276.572 414.545L276.704 458.378ZM276.704 486.415L276.836 534.593C276.836 546.834 282.782 552.889 294.543 552.889H299.696C311.456 552.889 317.402 546.834 317.402 534.593V510.899H344.49V533.408C344.49 564.341 329.427 580.137 299.564 580.137H293.618C263.755 580.137 248.691 564.473 248.691 537.094V419.283C248.691 384.664 263.755 369 293.618 369H299.564C329.427 369 344.49 384.664 344.49 415.598L344.358 486.284L276.704 486.415Z" fill="#464547"/>
<path d="M390.606 541.833C398.27 548.677 407.123 552.495 416.373 552.495C426.679 552.495 432.625 547.493 432.625 535.646V413.228C432.625 401.382 426.679 396.38 416.373 396.38C407.123 396.38 398.27 400.197 390.606 407.042V541.833ZM362.593 371.37H390.606V384.796C397.213 377.556 408.577 369.132 424.829 369.132C448.746 369.132 460.506 385.586 460.506 410.069V539.332C460.506 563.815 448.746 580.269 424.829 580.269C408.577 580.269 397.213 572.239 390.606 565.395V632H362.593V371.37Z" fill="#464547"/>
<path d="M544.413 543.017V474.964L519.042 484.968C508.736 489.18 505.432 494.577 505.432 506.424V537.752C505.432 547.756 510.189 552.626 519.042 552.626C527.499 552.626 535.295 549.599 544.413 543.017ZM477.419 505.897C477.419 480.229 485.48 469.962 506.886 462.327L544.413 448.901V414.545C544.413 402.303 538.467 395.853 526.706 395.853H522.214C510.454 395.853 504.507 402.303 504.507 414.545V443.767H477.287V415.729C477.287 384.796 492.351 369.132 522.214 369.132H527.499C557.362 369.132 572.426 384.796 572.426 415.729V577.9H544.413V564.868C536.749 572.503 526.31 580.137 510.189 580.137C487.726 580.137 477.419 566.711 477.419 543.807V505.897Z" fill="#464547"/>
<path d="M685.534 577.899H657.522V411.517C657.522 401.25 652.765 396.643 644.308 396.643C636.644 396.643 628.451 399.67 618.541 406.91V577.899H590.528V371.369H618.541V384.796C626.734 376.766 637.305 369 652.765 369C667.167 369 676.681 375.187 681.835 385.849C691.877 377.03 703.637 369 719.758 369C741.428 369 752.528 382.821 752.528 405.33V577.768H724.515V411.517C724.515 401.25 719.758 396.643 711.301 396.643C703.637 396.643 695.445 399.67 685.534 406.91V577.899Z" fill="#464547"/>
<path d="M141 461.405V489.311L212.882 559.471V520.64L165.842 474.963L212.882 428.366V390.324L141 461.405Z" fill="#00ABCD"/>
<path d="M788.073 428.366L835.113 474.963L788.073 520.771V559.471L859.955 489.311V461.405L788.073 390.324V428.366Z" fill="#00ABCD"/>
</g>
<defs>
<clipPath id="clip0_1250_583">
<rect width="718.955" height="263" fill="white" transform="translate(141 369)"/>
</clipPath>
</defs>
</svg>
