<svg width="5668" height="1521" viewBox="0 0 5668 1521" fill="none" xmlns="http://www.w3.org/2000/svg">
<path d="M18.7666 64.1126H471.87C575.51 64.1126 697.695 159.744 752.169 212.337L1547.1 1083.07V64.1126H1817.15V1454.32H1344.4C1260.18 1451.52 1177.49 1434.42 1081.12 1340.87L287.502 468.55V1454.32H18.7666L18.7666 64.1126Z" fill="#1414A0"/>
<path d="M5648.69 1463.79C5325.26 1507.41 4998.05 1511.72 4670.19 1484.49C4478.25 1467.75 4290.25 1428.73 4117.95 1339.85C3900.42 1228.49 3831.11 978.167 3834.02 751.268C3836.42 541.828 3899.47 318.234 4088.64 196.45C4212.65 116.051 4345.09 89.6825 4485.82 64.4635C4869.97 -2.4279 5254.86 12.6604 5629.63 53.255V251.558C5187.66 166.705 4720.81 187.828 4562.18 388.43C4463.05 513.232 4448.94 637.387 4448.94 741.927C4448.94 930.315 4514.18 1216.13 4901.68 1271.67C5154.49 1308.31 5404.75 1280.51 5648.69 1236.61V1463.79Z" fill="#1414A0"/>
<path d="M2880.99 1247.58C2919.25 1247.94 3528.36 1250.74 3737.45 1247.58V1455.3C3316.28 1471.32 2911.61 1478.29 2486.15 1460.83C2125.12 1446.1 2062.93 1266.76 2055.95 1094.47V64.0837H3717.31V262.028H2642.51V615.956H3622.11V809.158H2642.51C2642.51 913.698 2646 1032.25 2647.02 1053.59C2652.77 1188.38 2716.04 1237.95 2880.99 1247.58Z" fill="#1414A0"/>
</svg>
