<svg width="1000" height="1000" viewBox="0 0 1000 1000" fill="none" xmlns="http://www.w3.org/2000/svg">
<rect width="1000" height="1000" rx="500" fill="white"/>
<path d="M146.358 412.055H203.291C216.314 412.055 231.666 424.071 238.511 430.68L338.396 540.089V412.055H372.327V586.736H312.926C302.344 586.384 291.953 584.236 279.845 572.481L180.125 462.873V586.736H146.358V412.055Z" fill="#1414A0"/>
<path d="M853.766 587.927C813.126 593.407 772.012 593.949 730.816 590.527C706.699 588.424 683.076 583.522 661.427 572.354C634.093 558.361 625.384 526.907 625.75 498.397C626.051 472.081 633.974 443.986 657.744 428.684C673.325 418.581 689.966 415.268 707.649 412.099C755.919 403.694 804.28 405.59 851.371 410.691V435.608C795.836 424.946 737.176 427.6 717.245 452.806C704.789 468.488 703.016 484.088 703.016 497.224C703.016 520.895 711.213 556.808 759.904 563.787C791.669 568.391 823.115 564.897 853.766 559.381V587.927Z" fill="#1414A0"/>
<path d="M506.001 560.759C510.808 560.805 587.343 561.157 613.616 560.759V586.859C560.695 588.872 509.848 589.748 456.388 587.554C411.024 585.704 403.211 563.17 402.333 541.521V412.052H611.085V436.923H476.036V481.395H599.123V505.671H476.036C476.036 518.807 476.474 533.703 476.602 536.384C477.324 553.32 485.275 559.55 506.001 560.759Z" fill="#1414A0"/>
</svg>
