<svg width="7578" height="1233" viewBox="0 0 7578 1233" fill="none" xmlns="http://www.w3.org/2000/svg">
<g clip-path="url(#clip0_1257_1489)">
<path d="M756.722 551.38L754.157 559.038C805.46 582.013 920.893 671.357 920.893 850.044C920.893 1018.52 777.244 1189.55 554.075 1189.55C274.472 1189.55 176.996 1026.18 176.996 878.124C176.996 686.673 310.384 559.038 310.384 385.456C307.819 257.822 218.039 148.056 94.9109 122.529L89.7806 127.635C133.388 171.03 159.04 229.742 159.04 291.006C159.04 479.905 0 615.197 0 829.623C0 1028.73 141.084 1232.95 546.379 1232.95C908.067 1232.95 1097.89 1056.81 1097.89 870.466C1097.89 709.647 982.457 571.802 756.722 551.38Z" fill="white"/>
<path d="M2344.56 1199.76L1864.87 584.565V1141.05L1962.35 1164.02V1189.55H1739.18V1164.02L1818.7 1141.05V536.064C1798.18 518.195 1775.09 505.432 1749.44 497.773C1739.18 495.221 1726.35 492.668 1726.35 492.668V467.141H1916.17L2326.6 998.1V515.642L2231.69 492.668V467.141H2454.86V492.668L2375.34 515.642V1067.02C2375.34 1118.08 2377.9 1192.1 2380.47 1202.31L2344.56 1199.76ZM3350.1 809.201C3350.1 1064.47 3170.54 1212.53 2975.59 1212.53C2780.63 1212.53 2598.51 1061.92 2598.51 829.622C2598.51 597.328 2778.07 444.167 2973.02 444.167C3175.67 436.509 3344.97 594.776 3350.1 796.438C3350.1 798.99 3350.1 804.096 3350.1 809.201ZM3224.41 847.491C3224.41 661.145 3111.54 477.352 2957.63 477.352C2793.46 477.352 2721.64 635.618 2721.64 801.543C2721.64 967.467 2813.98 1176.79 2990.98 1176.79C3155.15 1179.34 3224.41 1013.42 3224.41 847.491ZM3506.57 515.642L3429.62 492.668V467.141H3724.61V492.668L3632.27 515.642L3834.92 1067.02L4037.56 515.642L3945.22 492.668V467.141H4163.26V492.668L4086.3 515.642L3832.35 1202.31H3768.22L3506.57 515.642ZM5248.32 819.412H5202.15V502.879C5356.06 502.879 5448.4 538.616 5448.4 663.698C5445.84 758.147 5366.32 819.412 5248.32 819.412ZM6566.81 1164.02L6669.42 1141.05V515.642L6566.81 492.668V467.141H6887.46V492.668L6784.85 515.642V1141.05L6887.46 1164.02V1189.55H6566.81V1164.02ZM7082.41 990.442H7102.93L7169.62 1146.16C7210.67 1166.58 7254.27 1176.79 7300.45 1179.34C7387.66 1179.34 7469.75 1128.29 7469.75 1036.39C7469.75 967.467 7423.57 926.624 7351.75 888.334L7279.93 850.044C7192.71 804.096 7108.06 742.831 7108.06 640.724C7108.06 530.958 7185.01 444.167 7349.19 444.167C7408.18 444.167 7464.62 454.378 7518.49 472.247L7536.44 640.724H7513.36L7449.23 505.432C7415.88 487.563 7379.97 477.352 7341.49 477.352C7259.4 477.352 7200.41 528.406 7200.41 599.881C7200.41 663.698 7244.01 704.541 7315.84 742.831L7400.49 786.227C7518.49 847.491 7572.35 903.65 7572.35 1005.76C7572.35 1133.39 7451.79 1212.53 7303.01 1212.53C7233.75 1212.53 7161.93 1202.31 7095.23 1181.89L7082.41 990.442ZM4117.08 1164.02L4199.17 1141.05L4453.12 467.141L4537.77 446.72L4799.42 1143.6L4881.5 1166.58V1192.1H4571.12V1166.58L4676.29 1143.6L4601.9 944.493H4322.3L4247.91 1143.6L4353.08 1166.58V1192.1H4114.52L4117.08 1164.02ZM4342.82 885.782H4583.94L4463.38 564.143L4342.82 885.782ZM5394.53 834.728C5420.18 829.622 5563.83 791.332 5563.83 656.04C5563.83 546.275 5479.18 462.036 5273.97 462.036C5145.71 462.036 5017.45 464.589 5002.06 464.589V490.115L5086.71 513.09V1138.5L5002.06 1161.47V1187H5299.62V1161.47L5202.15 1138.5V857.702H5286.8L5502.27 1189.55H5694.66V1164.02L5597.18 1138.5L5394.53 834.728ZM6025.56 502.879V1138.5L5922.96 1161.47V1187H6243.6V1161.47L6140.99 1138.5V502.879H6312.86L6369.29 625.408H6392.38L6376.99 467.141H5792.13L5776.74 625.408H5799.83L5856.26 505.432L6025.56 502.879ZM551.509 962.362L654.116 -2.55273H441.208L543.814 962.362H551.509Z" fill="white"/>
</g>
<defs>
<clipPath id="clip0_1257_1489">
<rect width="7577.48" height="1232.95" fill="white"/>
</clipPath>
</defs>
</svg>
