<svg width="7578" height="1233" viewBox="0 0 7578 1233" fill="none" xmlns="http://www.w3.org/2000/svg">
<g clip-path="url(#clip0_1257_1493)">
<path d="M757.902 551.522L754.825 559.434C806.121 581.893 921.281 670.963 921.281 850.38C921.281 1019.33 778.164 1189.56 553.23 1189.56C273.409 1189.56 176.972 1026.73 176.972 877.178C176.972 685.511 311.625 557.902 311.625 383.334C310.892 321.594 289.133 261.927 249.906 214.086C210.68 166.244 156.304 133.058 95.6679 119.951L91.0512 127.863C113.041 149.094 130.489 174.532 142.345 202.645C154.202 230.759 160.222 260.968 160.045 291.457C160.045 480.061 0.256836 614.05 0.256836 830.473C0.256836 1029.8 140.296 1232.95 545.792 1232.95C907.174 1232.95 1097.74 1056.85 1097.74 869.522C1097.48 708.735 981.81 572.705 757.902 551.522Z" fill="url(#paint0_linear_1257_1493)"/>
<path d="M2345.52 1200.79L1865.13 584.445V1140.05L1963.11 1163.28V1188.8H1739.71V1163.28L1819.73 1140.05V534.678C1800.26 516.613 1776.81 503.329 1751.25 495.885C1741.51 493.844 1728.43 491.547 1728.43 491.547V466.025H1917.97L2328.34 996.875V515.282L2230.36 491.802V466.28H2453.76V491.802L2373.73 515.282V1066.29C2373.73 1117.34 2377.32 1191.61 2378.09 1201.05L2345.52 1200.79ZM3349.9 808.27C3349.9 1063.49 3170.36 1211.51 2974.16 1211.51C2777.95 1211.51 2597.64 1061.44 2597.64 828.177C2597.64 594.909 2777.18 443.311 2972.36 443.311C3021.49 441.697 3070.44 449.962 3116.29 467.611C3162.14 485.26 3203.93 511.931 3239.18 546.027C3274.43 580.124 3302.4 620.945 3321.43 666.048C3340.45 711.152 3350.14 759.611 3349.9 808.525V808.27ZM3225 846.553C3225 658.969 3112.14 476.999 2958.77 476.999C2795.65 476.999 2722.04 633.957 2722.04 801.89C2722.04 969.822 2815.14 1178.08 2990.31 1178.08C3154.98 1178.08 3225 1012.19 3225 846.553ZM3505.07 514.771L3428.13 491.291V465.77H3722.82V491.291L3630.49 514.771L3833.88 1066.55L4037.27 514.771L3944.94 491.291V465.77H4162.95V491.291L4086 514.771L3831.32 1202.58H3766.17L3505.07 514.771ZM5246.58 819.755H5199.9V503.797C5353.79 503.797 5445.35 539.017 5445.35 664.073C5444.58 756.972 5364.56 819.755 5246.58 819.755ZM6565.15 1163.28L6667.74 1140.05V515.027L6565.15 491.547V466.025H6884.98V491.547L6782.39 515.027V1140.05L6884.98 1163.28V1188.8H6565.15V1163.28ZM7080.93 990.239H7101.2L7169.16 1145.92C7209.57 1166.12 7253.99 1177.1 7299.2 1178.08C7387.43 1178.08 7467.96 1127.04 7467.96 1035.67C7467.96 966.249 7422.82 924.904 7349.73 886.877L7277.4 849.615C7190.96 804.952 7104.53 741.659 7104.53 639.827C7104.53 529.063 7181.47 443.566 7346.13 443.566C7404 444.151 7461.43 453.532 7516.44 471.385L7533.62 638.806H7511.82L7448.98 504.563C7416.45 486.485 7379.81 476.996 7342.54 476.999C7259.19 476.999 7202.51 528.043 7202.51 598.738C7202.51 662.797 7245.34 703.121 7318.69 740.893L7404.36 785.301C7521.31 845.532 7576.71 901.424 7576.71 1004.79C7576.71 1132.39 7456.42 1211.77 7306.89 1211.77C7236.5 1212.83 7166.4 1202.4 7099.4 1180.89L7080.93 990.239ZM4116.01 1163.28L4198.34 1140.05L4452.51 465.515L4537.41 443.821L4799.79 1139.8L4882.12 1163.28V1188.8H4570.75V1163.28L4676.17 1139.8L4601.79 939.707H4322.22L4248.35 1139.8L4353.77 1163.02V1188.54H4116.01V1163.28ZM4341.71 886.366H4583.58L4463.54 563.773L4341.71 886.366ZM5393.29 835.323C5418.93 828.943 5562.82 792.447 5562.82 656.672C5562.82 547.694 5478.95 463.218 5272.23 463.218C5143.99 463.218 5015.75 466.025 4999.59 466.535V492.057L5083.97 515.537V1139.8L4999.59 1163.28V1188.8H5298.13V1163.28L5200.16 1139.8V857.527H5284.54L5500.24 1189.31H5691.32V1163.79L5594.62 1138.26L5393.29 835.323ZM6023.72 503.542V1140.05L5921.12 1163.28V1188.8H6240.96V1163.28L6138.36 1140.05V503.797H6310.98L6367.92 625.79H6389.97L6373.56 466.791H5788.52L5772.11 625.79H5794.17L5850.59 505.073L6023.72 503.542ZM550.666 962.931L653.258 -1.53125H440.379L542.971 962.931H550.666Z" fill="#0460A9"/>
</g>
<defs>
<linearGradient id="paint0_linear_1257_1493" x1="0.000354768" y1="676.323" x2="1097.48" y2="676.323" gradientUnits="userSpaceOnUse">
<stop offset="0.3" stop-color="#E74A21"/>
<stop offset="0.7" stop-color="#EC9A1E"/>
</linearGradient>
<clipPath id="clip0_1257_1493">
<rect width="7577.48" height="1232.95" fill="white"/>
</clipPath>
</defs>
</svg>
