<svg width="1000" height="1000" viewBox="0 0 1000 1000" fill="none" xmlns="http://www.w3.org/2000/svg">
<rect width="1000" height="1000" rx="500" fill="white"/>
<g clip-path="url(#clip0_1247_613)">
<path d="M599.461 468.456L598.232 472.182C622.806 483.357 678.096 526.818 678.096 613.739C678.096 695.694 609.29 778.89 502.395 778.89C368.469 778.89 321.779 699.419 321.779 627.398C321.779 534.268 385.67 472.181 385.67 387.743C384.442 325.657 341.438 272.262 282.461 259.845L280.004 262.328C300.891 283.438 313.178 311.998 313.178 341.799C313.178 433.688 237 498.258 237 603.805C237 700.661 304.577 800 498.709 800C671.953 800 762.875 714.32 762.875 623.673C762.875 544.202 707.584 478.39 599.461 468.456Z" fill="url(#paint0_linear_1247_613)"/>
<path d="M501.166 668.376L550.313 199H448.333L497.48 668.376H501.166Z" fill="#0460A9"/>
</g>
<defs>
<linearGradient id="paint0_linear_1247_613" x1="237" y1="528.867" x2="762.752" y2="528.867" gradientUnits="userSpaceOnUse">
<stop offset="0.3" stop-color="#E74A21"/>
<stop offset="0.7" stop-color="#EC9A1E"/>
</linearGradient>
<clipPath id="clip0_1247_613">
<rect width="525.875" height="601" fill="white" transform="translate(237 199)"/>
</clipPath>
</defs>
</svg>
