<svg width="7486" height="2304" viewBox="0 0 7486 2304" fill="none" xmlns="http://www.w3.org/2000/svg">
<path d="M3877.27 2049.01V1137.27H3738.11V2049.01H3742.91H3877.27ZM3738.11 815.764H3872.47V964.52H3738.11V815.764Z" fill="#F5AB40"/>
<path d="M4054.82 177.549H4189.18V1463.58H4054.82V177.549Z" fill="#00A7DC"/>
<path d="M3421.41 177.549H3555.77V1463.58H3421.41V177.549ZM935.729 575.833H1070.09V1463.58H935.729V575.833Z" fill="#F5AB40"/>
<path d="M4693.04 575.832C4443.51 575.832 4294.75 777.373 4294.75 1036.5C4294.75 1290.82 4453.11 1463.57 4712.23 1463.57C4846.59 1463.57 4942.56 1434.78 4995.35 1410.79L5004.95 1405.99V1290.82C4952.16 1310.02 4836.99 1343.61 4731.43 1343.61C4577.87 1343.61 4443.51 1257.23 4438.71 1050.89H5038.54C5038.54 1036.5 5043.33 1012.51 5043.33 978.915C5043.33 820.561 4971.36 575.832 4693.04 575.832ZM4894.58 935.727H4443.51C4457.9 830.158 4525.09 686.2 4678.64 686.2C4856.19 686.2 4899.38 839.755 4894.58 935.727ZM5839.9 892.54C5844.7 719.79 5753.53 575.832 5499.2 575.832C5388.83 575.832 5292.86 590.228 5220.88 633.415V748.582C5292.86 714.992 5393.63 686.2 5475.21 686.2C5657.56 695.797 5695.94 810.964 5695.94 882.943V959.72C5316.85 844.554 5144.11 1007.71 5148.9 1218.85C5153.7 1343.61 5240.08 1463.57 5417.63 1463.57C5537.59 1463.57 5647.96 1434.78 5700.74 1372.4V1463.57H5839.9V892.54ZM5700.74 1218.85C5643.16 1286.03 5575.98 1353.21 5460.81 1353.21C5379.24 1353.21 5297.66 1300.42 5297.66 1199.65C5297.66 1031.7 5513.6 1026.9 5700.74 1079.69V1218.85Z" fill="#00A7DC"/>
<path d="M3296.64 849.353C3248.66 667.006 3123.89 580.631 2946.35 575.832H2893.56C2888.76 575.832 2879.16 575.832 2874.37 580.631C2759.2 599.825 2687.22 676.603 2687.22 676.603V575.832H2552.86V1866.66H2687.22V1372.4C2687.22 1372.4 2773.6 1453.98 2893.56 1463.57H2970.34C3109.5 1449.18 3210.27 1386.8 3267.85 1262.03C3330.23 1127.67 3335.03 988.512 3296.64 849.353ZM3176.68 1046.1V1065.29C3171.88 1098.88 3162.28 1132.47 3157.48 1156.46C3147.89 1180.46 3104.7 1286.03 2999.13 1314.82C2979.94 1319.62 2960.74 1324.41 2936.75 1324.41C2936.75 1324.41 2764 1324.41 2687.22 1185.26V844.554C2687.22 839.755 2740 729.387 2883.96 700.596C2903.16 695.797 2965.54 690.999 3023.12 710.193H3027.92L3037.52 714.992L3047.12 719.79L3056.71 724.589C3099.9 753.38 3176.68 830.158 3181.48 988.512C3181.48 1012.51 3176.68 1026.9 3176.68 1046.1Z" fill="#F5AB40"/>
<path d="M6084.63 681.402V575.833H5940.67V1463.57H6084.63V969.318C6084.63 873.346 6103.83 825.36 6108.63 820.562L6137.42 777.374C6151.81 762.978 6180.6 738.985 6223.79 719.791C6238.19 714.992 6252.58 710.194 6271.78 705.395H6295.77C6314.96 700.596 6334.16 700.596 6358.15 695.798H6425.33V575.833C6214.19 566.236 6108.63 662.208 6084.63 681.402Z" fill="#00A7DC"/>
<path d="M830.159 1166.06C820.561 1065.29 758.18 1007.71 662.207 978.916C638.214 969.319 609.423 964.52 585.43 959.722C532.645 945.326 479.86 935.729 431.874 916.534C340.701 878.145 359.895 767.777 412.68 729.389C446.27 705.396 489.458 691 532.645 691H614.221C643.013 695.798 667.006 695.798 695.798 705.396C748.582 719.791 791.77 738.986 791.77 738.986V623.819C786.971 623.819 762.978 614.222 762.978 614.222C667.006 585.43 571.034 571.035 470.263 585.43C340.701 604.625 225.534 695.798 239.93 863.75C244.729 930.93 278.319 983.715 340.701 1007.71C388.687 1031.7 446.27 1041.3 494.256 1055.69C537.444 1070.09 585.43 1084.49 628.617 1098.88C657.409 1108.48 676.603 1132.47 681.402 1161.26C700.596 1228.44 676.603 1286.03 604.624 1319.62C542.242 1348.41 475.062 1348.41 407.881 1343.61C287.916 1334.01 239.93 1295.62 239.93 1295.62V1405.99C239.93 1405.99 273.52 1420.39 316.708 1434.78L374.291 1449.18C441.472 1458.78 508.652 1458.78 580.631 1444.38C623.819 1434.78 667.006 1420.39 705.395 1401.19C796.568 1362.8 844.554 1271.63 830.159 1166.06ZM935.728 307.111H1070.09V455.868H935.728V307.111Z" fill="#F5AB40"/>
<path d="M7231.5 810.964C7183.51 623.818 7029.96 590.228 6996.37 580.631H6981.97C6895.6 571.033 6833.21 580.631 6780.43 599.825L6770.83 604.624C6703.65 633.415 6674.86 676.603 6674.86 676.603V575.832H6530.9V1458.78H6674.86V916.533C6674.86 801.367 6770.83 705.394 6890.8 705.394H6895.6C6895.6 705.394 7001.17 695.797 7063.55 777.374L7068.35 782.172L7077.94 796.568C7082.74 806.165 7087.54 810.964 7092.34 820.561C7092.34 825.36 7097.14 830.158 7097.14 839.755C7101.94 858.95 7111.53 906.936 7111.53 998.109V1458.78H7255.49V930.929C7245.89 882.943 7241.1 844.554 7231.5 810.964Z" fill="#00A7DC"/>
<path d="M2101.79 575.832C1929.04 580.631 1852.26 662.207 1828.27 695.798L1818.67 710.193V700.596L1813.87 695.798L1809.07 686.2C1775.48 638.214 1727.5 609.423 1703.5 599.826C1636.32 575.832 1578.74 575.832 1569.14 575.832H1564.35C1477.97 571.034 1415.59 604.624 1415.59 604.624C1343.61 633.416 1310.02 676.603 1310.02 676.603V575.832H1175.66V1458.78H1310.02V926.131C1310.02 892.54 1314.82 868.547 1319.62 854.152C1343.61 758.179 1429.98 690.999 1530.76 690.999C1621.93 690.999 1693.91 738.985 1727.5 815.763C1737.1 839.756 1741.89 868.547 1741.89 897.339V1453.98H1876.25V906.936C1876.25 782.172 1972.23 690.999 2092.19 690.999C2135.38 690.999 2178.57 705.395 2212.16 729.388C2269.74 767.777 2308.13 825.36 2308.13 902.138V1453.98H2447.29V921.332C2447.29 849.353 2432.89 791.77 2408.9 743.784C2322.53 590.228 2164.17 575.832 2101.79 575.832Z" fill="#F5AB40"/>
</svg>
