<svg width="50" height="50" viewBox="0 0 50 50" fill="none" xmlns="http://www.w3.org/2000/svg">
<path d="M41.6704 0C46.2663 5.78675e-06 50.0003 3.73521 50.0003 8.33237C50.0003 12.9295 46.2663 16.6647 41.6704 16.6647H41.6398L41.6704 16.6707C37.1658 16.6707 33.4929 20.2433 33.3394 24.7118V25.2941C33.4928 29.7586 37.1593 33.3289 41.6584 33.3352H41.6704C46.2662 33.3352 50.0003 37.0704 50.0003 41.6676C50.0003 46.2648 46.2662 50 41.6704 50H24.997C20.3949 50 16.667 46.2648 16.667 41.6676V33.3352H16.6732V13.9121H16.6749V8.33237C16.6749 3.73521 20.409 0 25.0049 0H41.6704Z" fill="url(#paint0_linear_425_4516)"/>
<path d="M25.0034 0C29.5993 5.78675e-06 33.3333 3.73521 33.3333 8.33237C33.3333 12.9295 29.5993 16.6647 25.0034 16.6647H24.9728L25.0034 16.6707C20.4988 16.6707 16.8259 20.2433 16.6724 24.7118V25.2941C16.8258 29.7586 20.4923 33.3289 24.9914 33.3352H25.0034C29.5992 33.3352 33.3333 37.0704 33.3333 41.6676C33.3333 46.2648 29.5992 50 25.0034 50H8.32997C3.7279 50 9.09056e-06 46.2648 0 41.6676V33.3352H0.00622762V13.9121H0.00789844V8.33237C0.00789844 3.73521 3.74204 0 8.33787 0H25.0034Z" fill="#002068"/>
<defs>
<linearGradient id="paint0_linear_425_4516" x1="33.3337" y1="25" x2="50.0003" y2="25.0187" gradientUnits="userSpaceOnUse">
<stop stop-color="#FF585D"/>
<stop offset="1" stop-color="#FFC100"/>
</linearGradient>
</defs>
</svg>
