<svg width="50" height="50" viewBox="0 0 50 50" fill="none" xmlns="http://www.w3.org/2000/svg">
<path d="M33.3305 24.9998V33.9563H49.9943V24.9998C49.9943 20.3969 46.2607 16.6685 41.6593 16.6685C37.0578 16.6685 33.3242 20.3969 33.3242 24.9998H33.3305Z" fill="url(#paint0_linear_425_4541)"/>
<path d="M33.3301 33.3322H49.994V41.6635C49.994 46.2663 46.2604 49.9948 41.6651 49.9948H33.3301V33.3322Z" fill="#FF585D"/>
<path d="M33.3268 8.33191C33.3268 3.73542 29.594 0.000147338 24.9989 0H8.32942C3.73421 0 0 3.73533 0 8.33191V16.6623H0.00610326V17.7032H0V41.6626C0 46.2592 3.72797 49.9945 8.32942 49.9945H33.3268V33.3322H24.9989C20.4997 33.3322 16.8318 29.7668 16.671 25.3056V24.6935C16.8327 20.233 20.4028 16.6623 24.9015 16.6623H24.9989C29.5938 16.6621 33.3265 12.9281 33.3268 8.33191Z" fill="#002068"/>
<path d="M24.999 50.0001H33.3341V41.6688C33.3341 46.2716 29.6005 50.0001 24.999 50.0001Z" fill="#002068"/>
<path d="M50.0002 8.33741C50.0002 3.73458 46.2666 0.00610352 41.6651 0.00610352C37.0637 0.00610352 33.3301 3.73458 33.3301 8.33741C33.3301 12.9402 37.0637 16.6687 41.6651 16.6687C46.2666 16.6687 50.0002 12.9402 50.0002 8.33741Z" fill="#FF585D"/>
<defs>
<linearGradient id="paint0_linear_425_4541" x1="37.2951" y1="35.6231" x2="47.158" y2="18.5446" gradientUnits="userSpaceOnUse">
<stop stop-color="#FF585D"/>
<stop offset="1" stop-color="#FFC100"/>
</linearGradient>
</defs>
</svg>
