<svg width="50" height="50" viewBox="0 0 50 50" fill="none" xmlns="http://www.w3.org/2000/svg">
<path d="M41.6645 33.3352H25.0003C20.3987 33.3352 16.665 37.0642 16.665 41.6676C16.665 46.271 20.3987 49.9999 25.0003 49.9999H41.6645C46.2661 49.9999 49.9997 46.271 49.9997 41.6676C49.9997 37.0642 46.2661 33.3352 41.6645 33.3352Z" fill="#002068"/>
<path d="M24.9995 0H8.33523C3.73368 0 0 3.72894 0 8.33235C0 12.9358 3.73368 16.6647 8.33523 16.6647H24.9995C29.601 16.6647 33.3347 12.9358 33.3347 8.33235C33.3347 3.72894 29.601 0 24.9995 0Z" fill="url(#paint0_linear_425_4503)"/>
<defs>
<linearGradient id="paint0_linear_425_4503" x1="10.4144" y1="19.1632" x2="22.9216" y2="-2.48784" gradientUnits="userSpaceOnUse">
<stop stop-color="#FF585D"/>
<stop offset="1" stop-color="#FFC100"/>
</linearGradient>
</defs>
</svg>
