<svg width="50" height="50" viewBox="0 0 50 50" fill="none" xmlns="http://www.w3.org/2000/svg">
<path d="M16.6533 8.10317C16.5324 3.61178 12.8511 0 8.33761 0H8.32516C3.73549 2.57503e-06 0.00637879 3.73469 0.00637879 8.33125V16.6687H0V25C2.24601e-06 29.5965 3.72287 33.3312 8.31878 33.3312H15.4563H16.6438H33.2939V33.3375H41.6189C46.2086 33.3375 49.9377 29.609 49.9377 25.0062V18.725L49.944 16.6687V8.33125C49.944 3.73469 46.2149 0 41.6252 0H41.6127C37.0992 2.53231e-06 33.418 3.61178 33.2971 8.10317C33.1761 3.61178 29.4949 0 24.9814 0H24.9689C20.4554 2.53231e-06 16.7742 3.61178 16.6533 8.10317Z" fill="url(#paint0_linear_425_4527)"/>
<path d="M49.988 41.6683C49.988 46.2649 46.2588 49.9996 41.6691 49.9996H41.6567C37.067 49.9996 33.3379 46.2649 33.3379 41.6683V33.3308H33.3503V24.9934C33.3503 20.3968 37.0795 16.6621 41.6691 16.6621H41.6816C46.2712 16.6621 50.0004 20.3968 50.0004 24.9934H49.9941V33.3308H49.988V41.6683Z" fill="#002068"/>
<path d="M8.38742 16.6683C12.9771 16.6683 16.7063 20.403 16.7063 24.9996V33.3371H16.6998V41.6683C16.6998 46.2649 12.9707 49.9995 8.38104 49.9995H8.36858C3.77891 49.9995 0.0498047 46.2649 0.0498047 41.6683V33.3308H0.0624104V24.9996C0.0624131 20.403 3.79153 16.6683 8.38119 16.6683H8.38742Z" fill="#002068"/>
<path d="M25.031 16.6683C29.6206 16.6683 33.3497 20.403 33.3497 24.9996V33.3371H33.3434V41.6683C33.3434 46.2649 29.6143 49.9995 25.0246 49.9995H25.0121C20.4225 49.9995 16.6934 46.2649 16.6934 41.6683V33.3308H16.706V24.9996C16.706 20.403 20.4351 16.6683 25.0247 16.6683H25.031Z" fill="#002068"/>
<defs>
<linearGradient id="paint0_linear_425_4527" x1="24.972" y1="19.0278" x2="23.7568" y2="-4.41144" gradientUnits="userSpaceOnUse">
<stop stop-color="#FF585D"/>
<stop offset="1" stop-color="#FFC100"/>
</linearGradient>
</defs>
</svg>
