<svg width="400" height="473" viewBox="0 0 400 473" fill="none" xmlns="http://www.w3.org/2000/svg">
<path d="M363.3 286.606H41.2101C68.7476 232.515 77.0088 173.506 80.5494 151.378C85.4668 120.644 83.0081 50.0789 137.1 18.6075C191.191 -12.864 248.151 5.49438 269.87 18.6075C285.032 23.9347 318.06 57.9467 328.879 151.378C339.697 244.808 356.334 280.46 363.3 286.606Z" fill="#B97C7C" stroke="black" stroke-width="2.4587"/>
<path d="M164.092 356.887L169.046 265.632L234.677 260.563L243.346 356.887C252.262 356.887 320.929 380.033 328.556 392.745C186.823 505.877 95.984 382.235 98.4607 379.7C100.442 377.672 143.041 363.646 164.092 356.887Z" fill="#F3C5C5" stroke="black" stroke-width="2.47666"/>
<path d="M233.439 255.493C207.286 269.181 189.125 279.248 182.667 275.989L238.392 315.061L233.439 255.493Z" fill="#E77E7F"/>
<path d="M109.555 174.143C106.611 167.061 105.136 135.47 105.136 114.392C113.257 110.712 134.613 95.9919 155.077 66.5518C173.753 83.3162 228.647 116.845 298.807 116.845C299.464 131.156 300.093 161.987 297.356 170.819C293.43 193.077 287.055 208.71 285.01 212.083C208.448 331.466 144.319 261.826 121.825 212.083C118.962 202.387 112.5 181.225 109.555 174.143Z" fill="#F6C4C5" stroke="black" stroke-width="2.47666"/>
<path d="M193.812 208.598C190.84 209.612 183.493 213.245 180.19 214.935C196.041 240.284 213.213 225.497 219.817 214.935L218.579 213.668C214.451 211.978 205.793 208.598 204.183 208.598C202.573 208.598 200.726 211.133 200.004 212.401C199.178 210.711 196.784 207.584 193.812 208.598Z" fill="#E77E7F"/>
<path d="M176.475 212.4C183.492 217.892 202.728 225.581 223.532 212.4" stroke="black" stroke-width="2.47666"/>
<path d="M79.8858 204.796C64.0352 179.448 82.3625 163.817 93.5075 159.169C98.8736 163.336 109.853 173.733 110.844 181.983C111.781 189.788 110.683 190.439 109.914 189.722C112.624 192.597 114.652 195.947 115.797 198.459C110.431 211.133 95.7365 230.145 79.8858 204.796Z" fill="#F3C5C5"/>
<path d="M93.5075 184.518C100.016 182.095 105.671 185.279 109.786 189.587M109.786 189.587C112.56 192.492 114.634 195.907 115.797 198.459C110.431 211.133 95.7365 230.145 79.8858 204.796C64.0352 179.448 82.3625 163.817 93.5075 159.169C98.8736 163.336 109.853 173.733 110.844 181.983C111.835 190.233 110.551 190.49 109.786 189.587Z" stroke="black" stroke-width="2.47666"/>
<path d="M327.558 204.937C343.412 179.511 325.081 163.831 313.934 159.169C308.567 163.349 297.585 173.778 296.594 182.053C295.657 189.882 296.756 190.536 297.525 189.817C294.815 192.7 292.786 196.06 291.64 198.581C297.007 211.294 311.705 230.364 327.558 204.937Z" fill="#F3C5C5"/>
<path d="M313.934 184.596C307.424 182.166 301.769 185.36 297.653 189.681M297.653 189.681C294.879 192.595 292.804 196.021 291.64 198.581C297.007 211.294 311.705 230.364 327.558 204.937C343.412 179.511 325.081 163.831 313.934 159.169C308.567 163.349 297.585 173.778 296.594 182.053C295.604 190.329 296.887 190.587 297.653 189.681Z" stroke="black" stroke-width="2.47666"/>
<ellipse cx="160.377" cy="161.704" rx="9.90666" ry="10.1393" fill="black"/>
<ellipse cx="244.584" cy="161.704" rx="9.90666" ry="10.1393" fill="black"/>
<path d="M198.567 170.529L194.432 190.408C194.113 191.946 195.287 193.389 196.857 193.389H204.957" stroke="black" stroke-width="2.47666"/>
<path d="M235.619 116.567C252.188 114.058 264.324 121.793 268.321 125.975C270.938 130.993 267.958 131.55 266.141 131.202C265.778 130.853 263.525 130.157 257.421 130.157C251.316 130.157 236.709 128.763 230.169 128.066C225.082 125.278 219.05 119.075 235.619 116.567Z" fill="#B97C7C" stroke="black" stroke-width="2.47666"/>
<path d="M161.913 116.567C145.344 114.058 133.208 121.793 129.211 125.975C126.594 130.993 129.574 131.55 131.391 131.202C131.754 130.853 134.007 130.157 140.111 130.157C146.216 130.157 160.823 128.763 167.363 128.066C172.45 125.278 178.482 119.075 161.913 116.567Z" fill="#B97C7C" stroke="black" stroke-width="2.47666"/>
<path d="M100.426 379.397C31.7426 401.007 0.00522041 467.742 1.27637 470.92H397.24C360.971 406.091 328.556 390.202 308.895 379.397C283.472 393.126 243.219 399.524 226.27 401.007L207.838 421.981L187.5 401.007C136.145 397.956 108.053 385.329 100.426 379.397Z" fill="white" stroke="black" stroke-width="2.47874"/>
</svg>
