<svg width="387" height="455" viewBox="0 0 387 455" fill="none" xmlns="http://www.w3.org/2000/svg">
<path d="M155.326 339.477L160.085 256.778L223.152 252.183L231.481 339.477C240.049 339.477 244.967 344.072 262.42 350.964C185.074 432.515 129.147 349.815 131.527 347.518C133.431 345.68 135.097 345.603 155.326 339.477Z" fill="#F3C5C5" stroke="black" stroke-width="2.37987"/>
<path d="M221.962 247.589C196.831 259.994 179.38 269.117 173.175 266.163L226.722 301.573L221.962 247.589Z" fill="#E77E7F"/>
<path d="M101.779 174.078C98.9229 167.645 98.2089 127.75 98.2089 108.607C102.969 113.201 105.349 50.2727 113.678 47.9755C122.008 45.6782 163.655 51.7849 181.504 25.3669C195.784 4.23244 243.381 55.0052 257.66 56.9195C255.756 84.4862 277.492 105.927 288.598 113.201C288.202 125.07 288.008 154.603 284.2 174.819C280.392 195.035 273.923 205.473 271.939 208.536C197.687 316.965 135.494 253.715 113.678 208.536C110.902 199.73 104.635 180.51 101.779 174.078Z" fill="#F6C4C5" stroke="black" stroke-width="2.37987"/>
<path d="M168.443 208.536C175.186 213.513 193.67 220.482 213.661 208.536" stroke="black" stroke-width="2.37987"/>
<path d="M74.4096 201.644C59.1784 178.672 76.7894 164.506 87.4988 160.294C92.6552 164.071 103.206 173.493 104.158 180.969C105.059 188.043 104.003 188.633 103.264 187.983C105.868 190.589 107.817 193.624 108.918 195.901C103.761 207.387 89.6407 224.617 74.4096 201.644Z" fill="#F3C5C5"/>
<path d="M87.4988 183.267C93.7533 181.071 99.187 183.957 103.141 187.861M103.141 187.861C105.807 190.493 107.8 193.589 108.918 195.901C103.761 207.387 89.6407 224.617 74.4096 201.644C59.1784 178.672 76.7894 164.506 87.4988 160.294C92.6552 164.071 103.206 173.493 104.158 180.969C105.11 188.446 103.876 188.679 103.141 187.861Z" stroke="black" stroke-width="2.37987"/>
<path d="M312.404 201.772C327.638 178.729 310.023 164.519 299.312 160.294C294.155 164.082 283.602 173.534 282.65 181.033C281.749 188.129 282.805 188.721 283.544 188.069C280.939 190.682 278.99 193.727 277.889 196.011C283.046 207.533 297.17 224.815 312.404 201.772Z" fill="#F3C5C5"/>
<path d="M299.312 183.338C293.056 181.135 287.622 184.03 283.667 187.946M283.667 187.946C281.001 190.587 279.007 193.691 277.889 196.011C283.046 207.533 297.17 224.815 312.404 201.772C327.638 178.729 310.023 164.519 299.312 160.294C294.155 164.082 283.602 173.534 282.65 181.033C281.698 188.533 282.931 188.767 283.667 187.946Z" stroke="black" stroke-width="2.37987"/>
<ellipse cx="151.756" cy="162.592" rx="9.51947" ry="9.18888" fill="#3D3434"/>
<ellipse cx="232.671" cy="162.592" rx="9.51947" ry="9.18888" fill="#3D3434"/>
<path d="M191.08 168.335L186.914 188.444C186.608 189.921 187.736 191.307 189.244 191.307H197.03" stroke="black" stroke-width="2.37987"/>
<path d="M224.056 121.686C239.978 119.412 251.64 126.423 255.481 130.212C257.994 134.76 255.131 135.265 253.386 134.949C253.036 134.633 250.872 134.002 245.006 134.002C239.14 134.002 225.104 132.739 218.819 132.107C213.931 129.581 208.135 123.959 224.056 121.686Z" fill="#CDCCCC" stroke="black" stroke-width="2.37987"/>
<path d="M153.231 121.686C137.31 119.412 125.648 126.423 121.807 130.212C119.293 134.76 122.156 135.265 123.902 134.949C124.251 134.633 126.416 134.002 132.282 134.002C138.148 134.002 152.184 132.739 158.469 132.107C163.357 129.581 169.153 123.959 153.231 121.686Z" fill="#CDCCCC" stroke="black" stroke-width="2.37987"/>
<rect x="110.108" y="383.166" width="149.932" height="68.8339" fill="#797171" stroke="black" stroke-width="2.37987"/>
<path d="M165.483 420.038L192.759 383.571L220.036 420.038L209.362 432.513L220.036 451.706H165.483L177.342 432.513L165.483 420.038Z" fill="black" stroke="black" stroke-width="2.37987"/>
<path d="M244.57 344.072C195.691 405.227 160.321 369.553 141.046 344.072L130.337 352.112L124.022 371.108C124.022 387.726 142.206 414.038 151.299 425.117L192.759 382.74L233.128 425.117C249.712 409.163 256.04 389.111 257.131 381.079V355.558L244.57 344.072Z" fill="#FFFCFC" stroke="black" stroke-width="2.37987"/>
<path d="M99.89 360.404C36.5813 388.797 9.41156 435.944 1.82358 453.19H158.895C122.473 394.159 132.337 354.797 141.822 342.923C138.372 345.025 142.096 341.476 99.89 360.404Z" fill="#C4C4C4" stroke="black" stroke-width="2.37987"/>
<path d="M286.916 360.404C350.225 388.797 377.395 435.944 384.983 453.19H227.911C264.334 394.159 254.469 354.797 244.984 342.923C248.434 345.025 244.71 341.476 286.916 360.404Z" fill="#C4C4C4" stroke="black" stroke-width="2.37987"/>
<path d="M154.135 453.19H230.291" stroke="black" stroke-width="2.37987"/>
<path d="M141.69 54.3449C95.0446 81.9514 94.6888 121.8 101.432 150.755L97.7765 167.204C95.7932 162.047 95.9965 164.295 94.0926 156.679C91.7127 147.16 69.1039 117.412 77.4335 69.8141C84.0971 31.7363 125.031 22.6133 144.07 17.4569C261.873 -38.4699 310.661 63.8644 307.091 112.652C306.046 126.931 294.478 145.256 291.622 151.919C288.766 158.583 287.217 164.024 286.027 171.164L286.862 157.761C287.259 156.174 283.857 156.695 284.808 152.887C285.998 148.127 288.052 124.551 286.862 118.601C285.672 112.652 272.583 94.8027 221.416 90.0429C180.482 86.2351 151.209 64.6577 141.69 54.3449Z" fill="#CDCCCC" stroke="black" stroke-width="2.37987"/>
</svg>
