<svg width="395" height="468" viewBox="0 0 395 468" fill="none" xmlns="http://www.w3.org/2000/svg">
<path d="M282.879 368.089C260.46 377.464 196.299 390.59 119.013 368.089C70.098 357.977 7.73103 292.27 44.4175 233.572C73.7666 186.613 79.4734 144.709 78.6582 129.627C79.6365 29.8396 160.591 2.447 200.946 1.22412C296.82 7.09395 324.05 89.2716 325.68 129.627C324.457 212.783 352.584 191.994 364.812 265.367C374.596 324.065 314.267 358.306 282.879 368.089Z" fill="#3D3434" stroke="black" stroke-width="2.44576"/>
<path d="M94.5023 375.982C33.8822 392.303 8.13499 443.606 1.6167 466.652H392.714C369.248 410.437 325.087 383.538 304.717 375.982C261.533 370.315 155.122 359.662 94.5023 375.982Z" fill="#ABC2B5" stroke="black" stroke-width="2.44576"/>
<path d="M161.814 354.637L166.706 266.589L231.518 261.698L240.078 354.637C248.883 354.637 286.956 369.312 304.891 376.649C194.832 423.118 94.5555 379.095 97.0013 376.649C98.9579 374.692 141.025 361.159 161.814 354.637Z" fill="#F3C5C5" stroke="black" stroke-width="2.44576"/>
<path d="M230.296 256.806C204.468 270.014 186.535 279.727 180.157 276.582L235.187 314.282L230.296 256.806Z" fill="#E77E7F"/>
<path d="M106.784 178.542C103.849 171.694 103.116 129.219 103.116 108.838C108.007 113.729 143.471 113.729 152.031 111.284C160.591 108.838 186.272 103.946 204.615 75.82C219.289 53.3189 252.307 51.7699 266.982 53.8081C265.025 83.1572 287.363 105.984 298.777 113.729C298.369 126.366 296.576 157.019 292.662 178.542C288.749 200.065 283.695 211.967 281.656 215.228C205.349 330.668 141.433 263.328 119.013 215.228C116.16 205.853 109.719 185.39 106.784 178.542Z" fill="#F6C4C5" stroke="black" stroke-width="2.44576"/>
<path d="M191.163 211.56C188.228 212.538 180.973 216.044 177.712 217.674C193.365 242.132 210.322 227.865 216.844 217.674L215.621 216.451C211.545 214.821 202.995 211.56 201.405 211.56C199.815 211.56 197.991 214.006 197.278 215.228C196.462 213.598 194.098 210.582 191.163 211.56Z" fill="#E77E7F"/>
<path d="M174.043 215.228C180.973 220.528 199.968 227.946 220.513 215.228" stroke="black" stroke-width="2.44576"/>
<path d="M78.6582 207.891C63.0053 183.434 81.104 168.351 92.1099 163.867C97.4091 167.888 108.252 177.919 109.23 185.879C110.156 193.41 109.071 194.038 108.311 193.347C110.988 196.121 112.99 199.352 114.122 201.777C108.823 214.006 94.3111 232.349 78.6582 207.891Z" fill="#F3C5C5"/>
<path d="M92.1099 188.325C98.5375 185.988 104.122 189.06 108.185 193.217M108.185 193.217C110.924 196.019 112.973 199.314 114.122 201.777C108.823 214.006 94.3111 232.349 78.6582 207.891C63.0053 183.434 81.104 168.351 92.1099 163.867C97.4091 167.888 108.252 177.919 109.23 185.879C110.209 193.839 108.941 194.088 108.185 193.217Z" stroke="black" stroke-width="2.44576"/>
<path d="M323.241 208.027C338.897 183.494 320.795 168.365 309.787 163.867C304.487 167.9 293.642 177.963 292.663 185.947C291.738 193.501 292.822 194.132 293.583 193.438C290.906 196.22 288.903 199.462 287.771 201.894C293.071 214.161 307.585 232.56 323.241 208.027Z" fill="#F3C5C5"/>
<path d="M309.787 188.401C303.358 186.056 297.773 189.138 293.709 193.307M293.709 193.307C290.969 196.118 288.92 199.424 287.771 201.894C293.071 214.161 307.585 232.56 323.241 208.027C338.897 183.494 320.795 168.365 309.787 163.867C304.487 167.9 293.642 177.963 292.663 185.947C291.685 193.932 292.953 194.181 293.709 193.307Z" stroke="black" stroke-width="2.44576"/>
<circle cx="158.145" cy="166.313" r="9.78305" fill="black"/>
<circle cx="241.302" cy="166.313" r="9.78305" fill="black"/>
<path d="M193.609 185.879L191.825 193.909C191.485 195.436 192.648 196.885 194.212 196.885H202.169" stroke="black" stroke-width="2.44576"/>
<path d="M232.448 122.762C248.81 120.341 260.795 127.805 264.742 131.84C267.326 136.682 264.383 137.22 262.589 136.883C262.23 136.547 260.006 135.875 253.977 135.875C247.949 135.875 233.524 134.53 227.065 133.857C222.042 131.168 216.085 125.183 232.448 122.762Z" fill="black" stroke="black" stroke-width="2.44576"/>
<path d="M159.662 122.762C143.299 120.341 131.315 127.805 127.368 131.84C124.784 136.682 127.726 137.22 129.521 136.883C129.879 136.547 132.104 135.875 138.132 135.875C144.161 135.875 158.585 134.53 165.044 133.857C170.068 131.168 176.024 125.183 159.662 122.762Z" fill="black" stroke="black" stroke-width="2.44576"/>
<path d="M186.272 167.536C190.348 165.09 201.436 161.666 213.175 167.536" stroke="#F5E3E3" stroke-width="4.89153"/>
<circle cx="147.14" cy="167.536" r="37.9093" stroke="#F5E3E3" stroke-width="4.89153"/>
<circle cx="252.307" cy="167.536" r="37.9093" stroke="#F5E3E3" stroke-width="4.89153"/>
</svg>
